<svg width="557" height="251" viewBox="0 0 557 251" fill="none" xmlns="http://www.w3.org/2000/svg">
<rect x="250.714" width="20.2031" height="121.218" transform="rotate(45 250.714 0)" fill="#E41D1D"/>
<rect x="165" y="14.2857" width="20.2031" height="121.218" transform="rotate(-45 165 14.2857)" fill="#E41D1D"/>
<circle cx="335" cy="50" r="39.9" stroke="#1D61E4" stroke-width="20.2"/>
<path d="M36.6094 149.75V218H22.5938V149.75H36.6094ZM57.6094 149.75V160.766H1.92188V149.75H57.6094ZM107.812 149.75V218H93.75V149.75H107.812ZM148.688 149.75L121.641 183.453L106.031 200.234L103.5 186.922L114.047 172.484L131.438 149.75H148.688ZM132.703 218L112.594 186.453L123 177.734L149.344 218H132.703ZM206.672 149.75V218H192.656V149.75H206.672ZM227.672 149.75V160.766H171.984V149.75H227.672ZM314.25 149.75V218H300.188V149.75H314.25ZM355.125 149.75L328.078 183.453L312.469 200.234L309.938 186.922L320.484 172.484L337.875 149.75H355.125ZM339.141 218L319.031 186.453L329.438 177.734L355.781 218H339.141ZM413.109 149.75V218H399.094V149.75H413.109ZM434.109 149.75V160.766H378.422V149.75H434.109ZM554.109 207.031V218H517.781V207.031H554.109ZM522.375 149.75V218H508.312V149.75H522.375ZM549.375 177.547V188.234H517.781V177.547H549.375ZM554.062 149.75V160.766H517.781V149.75H554.062Z" fill="white"/>
<path d="M80.5781 149.75V218H66.5625V149.75H80.5781Z" fill="#E41D1D"/>
<path d="M263.438 161.422L244.875 218H229.922L255.281 149.75H264.797L263.438 161.422ZM278.859 218L260.25 161.422L258.75 149.75H268.359L293.859 218H278.859ZM278.016 192.594V203.609H241.969V192.594H278.016Z" fill="#777777"/>
<path d="M498.188 182.281V185.516C498.188 190.703 497.484 195.359 496.078 199.484C494.672 203.609 492.688 207.125 490.125 210.031C487.562 212.906 484.5 215.109 480.938 216.641C477.406 218.172 473.484 218.938 469.172 218.938C464.891 218.938 460.969 218.172 457.406 216.641C453.875 215.109 450.812 212.906 448.219 210.031C445.625 207.125 443.609 203.609 442.172 199.484C440.766 195.359 440.062 190.703 440.062 185.516V182.281C440.062 177.062 440.766 172.406 442.172 168.312C443.578 164.188 445.562 160.672 448.125 157.766C450.719 154.859 453.781 152.641 457.312 151.109C460.875 149.578 464.797 148.812 469.078 148.812C473.391 148.812 477.312 149.578 480.844 151.109C484.406 152.641 487.469 154.859 490.031 157.766C492.625 160.672 494.625 164.188 496.031 168.312C497.469 172.406 498.188 177.062 498.188 182.281ZM483.984 185.516V182.188C483.984 178.562 483.656 175.375 483 172.625C482.344 169.875 481.375 167.562 480.094 165.688C478.812 163.812 477.25 162.406 475.406 161.469C473.562 160.5 471.453 160.016 469.078 160.016C466.703 160.016 464.594 160.5 462.75 161.469C460.938 162.406 459.391 163.812 458.109 165.688C456.859 167.562 455.906 169.875 455.25 172.625C454.594 175.375 454.266 178.562 454.266 182.188V185.516C454.266 189.109 454.594 192.297 455.25 195.078C455.906 197.828 456.875 200.156 458.156 202.062C459.438 203.938 461 205.359 462.844 206.328C464.688 207.297 466.797 207.781 469.172 207.781C471.547 207.781 473.656 207.297 475.5 206.328C477.344 205.359 478.891 203.938 480.141 202.062C481.391 200.156 482.344 197.828 483 195.078C483.656 192.297 483.984 189.109 483.984 185.516Z" fill="#1D61E4"/>
</svg>
